<mxfile host="Electron" agent="Mozilla/5.0 (Macintosh; Intel Mac OS X 10_15_7) AppleWebKit/537.36 (KHTML, like Gecko) draw.io/26.0.9 Chrome/128.0.6613.186 Electron/32.2.5 Safari/537.36" version="26.0.9">
  <diagram name="Seite-1" id="f2-5dPzEfdVtpSCgfkF_">
    <mxGraphModel dx="1489" dy="874" grid="1" gridSize="10" guides="1" tooltips="1" connect="1" arrows="1" fold="1" page="1" pageScale="1" pageWidth="827" pageHeight="1169" math="1" shadow="0">
      <root>
        <mxCell id="0" />
        <mxCell id="1" parent="0" />
        <mxCell id="J6B8D8bZqYuONdKnYEY_-1" value="" style="group" parent="1" vertex="1" connectable="0">
          <mxGeometry x="350" y="209" width="90" height="80" as="geometry" />
        </mxCell>
        <mxCell id="J6B8D8bZqYuONdKnYEY_-2" value="" style="triangle;whiteSpace=wrap;html=1;" parent="J6B8D8bZqYuONdKnYEY_-1" vertex="1">
          <mxGeometry x="30" width="60" height="80" as="geometry" />
        </mxCell>
        <mxCell id="J6B8D8bZqYuONdKnYEY_-3" value="" style="rounded=0;whiteSpace=wrap;html=1;" parent="J6B8D8bZqYuONdKnYEY_-1" vertex="1">
          <mxGeometry width="30" height="80" as="geometry" />
        </mxCell>
        <mxCell id="J6B8D8bZqYuONdKnYEY_-4" value="u" style="text;html=1;align=center;verticalAlign=middle;whiteSpace=wrap;rounded=0;fontSize=16;" parent="1" vertex="1">
          <mxGeometry x="350" y="289" width="90" height="30" as="geometry" />
        </mxCell>
        <mxCell id="J6B8D8bZqYuONdKnYEY_-5" value="" style="group;fillColor=default;" parent="1" vertex="1" connectable="0">
          <mxGeometry x="540" y="209" width="140" height="80" as="geometry" />
        </mxCell>
        <mxCell id="J6B8D8bZqYuONdKnYEY_-6" value="" style="endArrow=none;html=1;rounded=0;entryX=0;entryY=0;entryDx=0;entryDy=0;exitX=1;exitY=0;exitDx=0;exitDy=0;" parent="J6B8D8bZqYuONdKnYEY_-5" edge="1">
          <mxGeometry width="50" height="50" relative="1" as="geometry">
            <mxPoint x="80" as="sourcePoint" />
            <mxPoint as="targetPoint" />
          </mxGeometry>
        </mxCell>
        <mxCell id="J6B8D8bZqYuONdKnYEY_-7" value="" style="endArrow=none;html=1;rounded=0;entryX=1;entryY=0;entryDx=0;entryDy=0;exitX=1;exitY=0.5;exitDx=0;exitDy=0;" parent="J6B8D8bZqYuONdKnYEY_-5" edge="1">
          <mxGeometry width="50" height="50" relative="1" as="geometry">
            <mxPoint x="140" y="40" as="sourcePoint" />
            <mxPoint x="80" as="targetPoint" />
          </mxGeometry>
        </mxCell>
        <mxCell id="J6B8D8bZqYuONdKnYEY_-8" value="" style="endArrow=none;html=1;rounded=0;entryX=1;entryY=0.5;entryDx=0;entryDy=0;exitX=1;exitY=1;exitDx=0;exitDy=0;" parent="J6B8D8bZqYuONdKnYEY_-5" edge="1">
          <mxGeometry width="50" height="50" relative="1" as="geometry">
            <mxPoint x="80" y="80" as="sourcePoint" />
            <mxPoint x="140" y="40" as="targetPoint" />
          </mxGeometry>
        </mxCell>
        <mxCell id="J6B8D8bZqYuONdKnYEY_-9" value="" style="endArrow=none;html=1;rounded=0;entryX=1;entryY=1;entryDx=0;entryDy=0;exitX=0;exitY=1;exitDx=0;exitDy=0;" parent="J6B8D8bZqYuONdKnYEY_-5" edge="1">
          <mxGeometry width="50" height="50" relative="1" as="geometry">
            <mxPoint y="80" as="sourcePoint" />
            <mxPoint x="80" y="80" as="targetPoint" />
          </mxGeometry>
        </mxCell>
        <mxCell id="J6B8D8bZqYuONdKnYEY_-10" value="" style="endArrow=none;html=1;rounded=0;exitX=0;exitY=1;exitDx=0;exitDy=0;entryX=0;entryY=0;entryDx=0;entryDy=0;" parent="J6B8D8bZqYuONdKnYEY_-5" edge="1">
          <mxGeometry width="50" height="50" relative="1" as="geometry">
            <mxPoint y="80" as="sourcePoint" />
            <mxPoint as="targetPoint" />
          </mxGeometry>
        </mxCell>
        <mxCell id="J6B8D8bZqYuONdKnYEY_-11" value="&lt;p style=&quot;margin: 0px; font-variant-numeric: normal; font-variant-east-asian: normal; font-variant-alternates: normal; font-size-adjust: none; font-kerning: auto; font-optical-sizing: auto; font-feature-settings: normal; font-variation-settings: normal; font-variant-position: normal; font-stretch: normal; line-height: normal; font-family: Monaco; text-align: start;&quot; class=&quot;p1&quot;&gt;$$\sigma(x)=\frac{1}{1+e^{-x}}$$&lt;/p&gt;" style="text;html=1;align=center;verticalAlign=middle;whiteSpace=wrap;rounded=0;" parent="J6B8D8bZqYuONdKnYEY_-5" vertex="1">
          <mxGeometry x="30" y="25" width="60" height="30" as="geometry" />
        </mxCell>
        <mxCell id="J6B8D8bZqYuONdKnYEY_-12" value="Aktivierungsfunktion" style="text;html=1;align=center;verticalAlign=middle;whiteSpace=wrap;rounded=0;fontSize=16;" parent="1" vertex="1">
          <mxGeometry x="565" y="289" width="90" height="30" as="geometry" />
        </mxCell>
        <mxCell id="J6B8D8bZqYuONdKnYEY_-13" value="" style="group;fillColor=default;" parent="1" vertex="1" connectable="0">
          <mxGeometry x="780" y="219" width="140" height="80" as="geometry" />
        </mxCell>
        <mxCell id="J6B8D8bZqYuONdKnYEY_-14" value="" style="endArrow=none;html=1;rounded=0;entryX=0;entryY=0;entryDx=0;entryDy=0;exitX=1;exitY=0;exitDx=0;exitDy=0;" parent="J6B8D8bZqYuONdKnYEY_-13" edge="1">
          <mxGeometry width="50" height="50" relative="1" as="geometry">
            <mxPoint x="80" as="sourcePoint" />
            <mxPoint as="targetPoint" />
          </mxGeometry>
        </mxCell>
        <mxCell id="J6B8D8bZqYuONdKnYEY_-15" value="" style="endArrow=none;html=1;rounded=0;entryX=1;entryY=0;entryDx=0;entryDy=0;exitX=1;exitY=0.5;exitDx=0;exitDy=0;" parent="J6B8D8bZqYuONdKnYEY_-13" edge="1">
          <mxGeometry width="50" height="50" relative="1" as="geometry">
            <mxPoint x="140" y="40" as="sourcePoint" />
            <mxPoint x="80" as="targetPoint" />
          </mxGeometry>
        </mxCell>
        <mxCell id="J6B8D8bZqYuONdKnYEY_-16" value="" style="endArrow=none;html=1;rounded=0;entryX=1;entryY=0.5;entryDx=0;entryDy=0;exitX=1;exitY=1;exitDx=0;exitDy=0;" parent="J6B8D8bZqYuONdKnYEY_-13" edge="1">
          <mxGeometry width="50" height="50" relative="1" as="geometry">
            <mxPoint x="80" y="80" as="sourcePoint" />
            <mxPoint x="140" y="40" as="targetPoint" />
          </mxGeometry>
        </mxCell>
        <mxCell id="J6B8D8bZqYuONdKnYEY_-17" value="" style="endArrow=none;html=1;rounded=0;entryX=1;entryY=1;entryDx=0;entryDy=0;exitX=0;exitY=1;exitDx=0;exitDy=0;" parent="J6B8D8bZqYuONdKnYEY_-13" edge="1">
          <mxGeometry width="50" height="50" relative="1" as="geometry">
            <mxPoint y="80" as="sourcePoint" />
            <mxPoint x="80" y="80" as="targetPoint" />
          </mxGeometry>
        </mxCell>
        <mxCell id="J6B8D8bZqYuONdKnYEY_-18" value="" style="endArrow=none;html=1;rounded=0;exitX=0;exitY=1;exitDx=0;exitDy=0;entryX=0;entryY=0;entryDx=0;entryDy=0;" parent="J6B8D8bZqYuONdKnYEY_-13" edge="1">
          <mxGeometry width="50" height="50" relative="1" as="geometry">
            <mxPoint y="80" as="sourcePoint" />
            <mxPoint as="targetPoint" />
          </mxGeometry>
        </mxCell>
        <mxCell id="J6B8D8bZqYuONdKnYEY_-19" value="x" style="text;html=1;align=center;verticalAlign=middle;whiteSpace=wrap;rounded=0;" parent="J6B8D8bZqYuONdKnYEY_-13" vertex="1">
          <mxGeometry x="20" y="25" width="60" height="30" as="geometry" />
        </mxCell>
        <mxCell id="J6B8D8bZqYuONdKnYEY_-20" value="" style="endArrow=none;html=1;rounded=0;exitX=1;exitY=0.5;exitDx=0;exitDy=0;" parent="1" source="J6B8D8bZqYuONdKnYEY_-2" edge="1">
          <mxGeometry width="50" height="50" relative="1" as="geometry">
            <mxPoint x="750" y="309" as="sourcePoint" />
            <mxPoint x="540" y="249" as="targetPoint" />
          </mxGeometry>
        </mxCell>
        <mxCell id="J6B8D8bZqYuONdKnYEY_-21" value="" style="endArrow=none;html=1;rounded=0;" parent="1" edge="1">
          <mxGeometry width="50" height="50" relative="1" as="geometry">
            <mxPoint x="680" y="249" as="sourcePoint" />
            <mxPoint x="780" y="249" as="targetPoint" />
          </mxGeometry>
        </mxCell>
        <mxCell id="J6B8D8bZqYuONdKnYEY_-22" value="" style="ellipse;whiteSpace=wrap;html=1;aspect=fixed;" parent="1" vertex="1">
          <mxGeometry x="141" y="229" width="80" height="80" as="geometry" />
        </mxCell>
        <mxCell id="J6B8D8bZqYuONdKnYEY_-23" value="Eingabevektor" style="text;html=1;align=center;verticalAlign=middle;whiteSpace=wrap;rounded=0;fontSize=16;" parent="1" vertex="1">
          <mxGeometry x="136" y="309" width="90" height="30" as="geometry" />
        </mxCell>
        <mxCell id="J6B8D8bZqYuONdKnYEY_-24" value="" style="endArrow=none;html=1;rounded=0;exitX=1;exitY=0.5;exitDx=0;exitDy=0;entryX=0.5;entryY=1;entryDx=0;entryDy=0;edgeStyle=orthogonalEdgeStyle;" parent="1" source="J6B8D8bZqYuONdKnYEY_-22" edge="1" target="J6B8D8bZqYuONdKnYEY_-3">
          <mxGeometry width="50" height="50" relative="1" as="geometry">
            <mxPoint x="541" y="339" as="sourcePoint" />
            <mxPoint x="351" y="269" as="targetPoint" />
            <Array as="points">
              <mxPoint x="260" y="269" />
              <mxPoint x="260" y="320" />
              <mxPoint x="365" y="320" />
            </Array>
          </mxGeometry>
        </mxCell>
        <mxCell id="J6B8D8bZqYuONdKnYEY_-25" value="" style="endArrow=none;html=1;rounded=0;entryX=0;entryY=0.5;entryDx=0;entryDy=0;" parent="1" target="J6B8D8bZqYuONdKnYEY_-22" edge="1">
          <mxGeometry width="50" height="50" relative="1" as="geometry">
            <mxPoint x="1" y="269" as="sourcePoint" />
            <mxPoint x="541" y="339" as="targetPoint" />
          </mxGeometry>
        </mxCell>
        <mxCell id="J6B8D8bZqYuONdKnYEY_-26" value="" style="ellipse;whiteSpace=wrap;html=1;aspect=fixed;" parent="1" vertex="1">
          <mxGeometry x="136" y="539" width="80" height="80" as="geometry" />
        </mxCell>
        <mxCell id="J6B8D8bZqYuONdKnYEY_-27" value="Gewichtsmatrix" style="text;html=1;align=center;verticalAlign=middle;whiteSpace=wrap;rounded=0;fontSize=16;" parent="1" vertex="1">
          <mxGeometry x="131" y="629" width="90" height="30" as="geometry" />
        </mxCell>
        <mxCell id="J6B8D8bZqYuONdKnYEY_-28" value="" style="endArrow=none;html=1;rounded=0;exitX=1;exitY=0.5;exitDx=0;exitDy=0;edgeStyle=orthogonalEdgeStyle;" parent="1" source="J6B8D8bZqYuONdKnYEY_-26" edge="1">
          <mxGeometry width="50" height="50" relative="1" as="geometry">
            <mxPoint x="780" y="439" as="sourcePoint" />
            <mxPoint x="780" y="279" as="targetPoint" />
            <Array as="points">
              <mxPoint x="710" y="579" />
              <mxPoint x="710" y="279" />
            </Array>
          </mxGeometry>
        </mxCell>
        <mxCell id="J6B8D8bZqYuONdKnYEY_-29" value="" style="group;fillColor=default;" parent="1" vertex="1" connectable="0">
          <mxGeometry x="540" y="69" width="140" height="80" as="geometry" />
        </mxCell>
        <mxCell id="J6B8D8bZqYuONdKnYEY_-30" value="" style="endArrow=none;html=1;rounded=0;entryX=0;entryY=0;entryDx=0;entryDy=0;exitX=1;exitY=0;exitDx=0;exitDy=0;" parent="J6B8D8bZqYuONdKnYEY_-29" edge="1">
          <mxGeometry width="50" height="50" relative="1" as="geometry">
            <mxPoint x="80" as="sourcePoint" />
            <mxPoint as="targetPoint" />
          </mxGeometry>
        </mxCell>
        <mxCell id="J6B8D8bZqYuONdKnYEY_-31" value="" style="endArrow=none;html=1;rounded=0;entryX=1;entryY=0;entryDx=0;entryDy=0;exitX=1;exitY=0.5;exitDx=0;exitDy=0;" parent="J6B8D8bZqYuONdKnYEY_-29" edge="1">
          <mxGeometry width="50" height="50" relative="1" as="geometry">
            <mxPoint x="140" y="40" as="sourcePoint" />
            <mxPoint x="80" as="targetPoint" />
          </mxGeometry>
        </mxCell>
        <mxCell id="J6B8D8bZqYuONdKnYEY_-32" value="" style="endArrow=none;html=1;rounded=0;entryX=1;entryY=0.5;entryDx=0;entryDy=0;exitX=1;exitY=1;exitDx=0;exitDy=0;" parent="J6B8D8bZqYuONdKnYEY_-29" edge="1">
          <mxGeometry width="50" height="50" relative="1" as="geometry">
            <mxPoint x="80" y="80" as="sourcePoint" />
            <mxPoint x="140" y="40" as="targetPoint" />
          </mxGeometry>
        </mxCell>
        <mxCell id="J6B8D8bZqYuONdKnYEY_-33" value="" style="endArrow=none;html=1;rounded=0;entryX=1;entryY=1;entryDx=0;entryDy=0;exitX=0;exitY=1;exitDx=0;exitDy=0;" parent="J6B8D8bZqYuONdKnYEY_-29" edge="1">
          <mxGeometry width="50" height="50" relative="1" as="geometry">
            <mxPoint y="80" as="sourcePoint" />
            <mxPoint x="80" y="80" as="targetPoint" />
          </mxGeometry>
        </mxCell>
        <mxCell id="J6B8D8bZqYuONdKnYEY_-34" value="" style="endArrow=none;html=1;rounded=0;exitX=0;exitY=1;exitDx=0;exitDy=0;entryX=0;entryY=0;entryDx=0;entryDy=0;" parent="J6B8D8bZqYuONdKnYEY_-29" edge="1">
          <mxGeometry width="50" height="50" relative="1" as="geometry">
            <mxPoint y="80" as="sourcePoint" />
            <mxPoint as="targetPoint" />
          </mxGeometry>
        </mxCell>
        <mxCell id="J6B8D8bZqYuONdKnYEY_-35" value="&lt;p style=&quot;margin: 0px; font-variant-numeric: normal; font-variant-east-asian: normal; font-variant-alternates: normal; font-size-adjust: none; font-kerning: auto; font-optical-sizing: auto; font-feature-settings: normal; font-variation-settings: normal; font-variant-position: normal; font-stretch: normal; line-height: normal; font-family: Monaco; text-align: start;&quot; class=&quot;p1&quot;&gt;$$\sigma`(x)=\sigma(x)(1-\sigma(x))$$&lt;/p&gt;" style="text;html=1;align=center;verticalAlign=middle;whiteSpace=wrap;rounded=0;fontSize=10;" parent="J6B8D8bZqYuONdKnYEY_-29" vertex="1">
          <mxGeometry x="35" y="25" width="60" height="30" as="geometry" />
        </mxCell>
        <mxCell id="J6B8D8bZqYuONdKnYEY_-36" value="Aktivierungsfunktion&lt;div&gt;Ableitung&lt;/div&gt;" style="text;html=1;align=center;verticalAlign=middle;whiteSpace=wrap;rounded=0;fontSize=16;" parent="1" vertex="1">
          <mxGeometry x="565" y="159" width="90" height="30" as="geometry" />
        </mxCell>
        <mxCell id="J6B8D8bZqYuONdKnYEY_-37" value="" style="endArrow=none;html=1;rounded=0;edgeStyle=orthogonalEdgeStyle;exitX=1;exitY=0.5;exitDx=0;exitDy=0;" parent="1" source="J6B8D8bZqYuONdKnYEY_-2" edge="1">
          <mxGeometry width="50" height="50" relative="1" as="geometry">
            <mxPoint x="430" y="249" as="sourcePoint" />
            <mxPoint x="540" y="109" as="targetPoint" />
            <Array as="points">
              <mxPoint x="490" y="249" />
              <mxPoint x="490" y="109" />
            </Array>
          </mxGeometry>
        </mxCell>
        <mxCell id="J6B8D8bZqYuONdKnYEY_-38" value="" style="group;fillColor=default;" parent="1" vertex="1" connectable="0">
          <mxGeometry x="1260" y="80" width="140" height="80" as="geometry" />
        </mxCell>
        <mxCell id="J6B8D8bZqYuONdKnYEY_-39" value="" style="endArrow=none;html=1;rounded=0;entryX=0;entryY=0;entryDx=0;entryDy=0;exitX=1;exitY=0;exitDx=0;exitDy=0;" parent="J6B8D8bZqYuONdKnYEY_-38" edge="1">
          <mxGeometry width="50" height="50" relative="1" as="geometry">
            <mxPoint x="80" as="sourcePoint" />
            <mxPoint as="targetPoint" />
          </mxGeometry>
        </mxCell>
        <mxCell id="J6B8D8bZqYuONdKnYEY_-40" value="" style="endArrow=none;html=1;rounded=0;entryX=1;entryY=0;entryDx=0;entryDy=0;exitX=1;exitY=0.5;exitDx=0;exitDy=0;" parent="J6B8D8bZqYuONdKnYEY_-38" edge="1">
          <mxGeometry width="50" height="50" relative="1" as="geometry">
            <mxPoint x="140" y="40" as="sourcePoint" />
            <mxPoint x="80" as="targetPoint" />
          </mxGeometry>
        </mxCell>
        <mxCell id="J6B8D8bZqYuONdKnYEY_-41" value="" style="endArrow=none;html=1;rounded=0;entryX=1;entryY=0.5;entryDx=0;entryDy=0;exitX=1;exitY=1;exitDx=0;exitDy=0;" parent="J6B8D8bZqYuONdKnYEY_-38" edge="1">
          <mxGeometry width="50" height="50" relative="1" as="geometry">
            <mxPoint x="80" y="80" as="sourcePoint" />
            <mxPoint x="140" y="40" as="targetPoint" />
          </mxGeometry>
        </mxCell>
        <mxCell id="J6B8D8bZqYuONdKnYEY_-42" value="" style="endArrow=none;html=1;rounded=0;entryX=1;entryY=1;entryDx=0;entryDy=0;exitX=0;exitY=1;exitDx=0;exitDy=0;" parent="J6B8D8bZqYuONdKnYEY_-38" edge="1">
          <mxGeometry width="50" height="50" relative="1" as="geometry">
            <mxPoint y="80" as="sourcePoint" />
            <mxPoint x="80" y="80" as="targetPoint" />
          </mxGeometry>
        </mxCell>
        <mxCell id="J6B8D8bZqYuONdKnYEY_-43" value="" style="endArrow=none;html=1;rounded=0;exitX=0;exitY=1;exitDx=0;exitDy=0;entryX=0;entryY=0;entryDx=0;entryDy=0;" parent="J6B8D8bZqYuONdKnYEY_-38" edge="1">
          <mxGeometry width="50" height="50" relative="1" as="geometry">
            <mxPoint y="80" as="sourcePoint" />
            <mxPoint as="targetPoint" />
          </mxGeometry>
        </mxCell>
        <mxCell id="J6B8D8bZqYuONdKnYEY_-44" value="x" style="text;html=1;align=center;verticalAlign=middle;whiteSpace=wrap;rounded=0;" parent="J6B8D8bZqYuONdKnYEY_-38" vertex="1">
          <mxGeometry x="20" y="25" width="60" height="30" as="geometry" />
        </mxCell>
        <mxCell id="J6B8D8bZqYuONdKnYEY_-45" value="" style="endArrow=none;html=1;rounded=0;" parent="1" edge="1">
          <mxGeometry width="50" height="50" relative="1" as="geometry">
            <mxPoint x="680" y="109" as="sourcePoint" />
            <mxPoint x="1260" y="109" as="targetPoint" />
          </mxGeometry>
        </mxCell>
        <mxCell id="J6B8D8bZqYuONdKnYEY_-46" value="" style="triangle;whiteSpace=wrap;html=1;" parent="1" vertex="1">
          <mxGeometry x="1115" y="219" width="60" height="80" as="geometry" />
        </mxCell>
        <mxCell id="J6B8D8bZqYuONdKnYEY_-47" value="&lt;p style=&quot;margin: 0px; font-variant-numeric: normal; font-variant-east-asian: normal; font-variant-alternates: normal; font-size-adjust: none; font-kerning: auto; font-optical-sizing: auto; font-feature-settings: normal; font-variation-settings: normal; font-variant-position: normal; font-stretch: normal; font-size: 12px; line-height: normal; font-family: Monaco; text-align: start;&quot; class=&quot;p1&quot;&gt;$$\sum_{j\neq i} W_{ij}\rho(u_j)+b_i$$&lt;/p&gt;" style="text;html=1;align=center;verticalAlign=middle;whiteSpace=wrap;rounded=0;fontSize=16;" parent="1" vertex="1">
          <mxGeometry x="1100" y="309" width="90" height="30" as="geometry" />
        </mxCell>
        <mxCell id="J6B8D8bZqYuONdKnYEY_-48" value="" style="ellipse;whiteSpace=wrap;html=1;aspect=fixed;" parent="1" vertex="1">
          <mxGeometry x="135" y="379" width="80" height="80" as="geometry" />
        </mxCell>
        <mxCell id="J6B8D8bZqYuONdKnYEY_-49" value="Biasvektor" style="text;html=1;align=center;verticalAlign=middle;whiteSpace=wrap;rounded=0;fontSize=16;" parent="1" vertex="1">
          <mxGeometry x="134" y="459" width="90" height="30" as="geometry" />
        </mxCell>
        <mxCell id="J6B8D8bZqYuONdKnYEY_-50" value="" style="endArrow=none;html=1;rounded=0;exitX=1;exitY=0.5;exitDx=0;exitDy=0;entryX=0;entryY=0.25;entryDx=0;entryDy=0;edgeStyle=orthogonalEdgeStyle;" parent="1" source="J6B8D8bZqYuONdKnYEY_-48" target="J6B8D8bZqYuONdKnYEY_-46" edge="1">
          <mxGeometry width="50" height="50" relative="1" as="geometry">
            <mxPoint x="580" y="299" as="sourcePoint" />
            <mxPoint x="630" y="249" as="targetPoint" />
            <Array as="points">
              <mxPoint x="1020" y="419" />
              <mxPoint x="1020" y="280" />
              <mxPoint x="1115" y="280" />
            </Array>
          </mxGeometry>
        </mxCell>
        <mxCell id="J6B8D8bZqYuONdKnYEY_-51" value="" style="endArrow=none;html=1;rounded=0;entryX=0;entryY=0.5;entryDx=0;entryDy=0;" parent="1" target="J6B8D8bZqYuONdKnYEY_-48" edge="1">
          <mxGeometry width="50" height="50" relative="1" as="geometry">
            <mxPoint y="418.56999999999994" as="sourcePoint" />
            <mxPoint x="130" y="419" as="targetPoint" />
          </mxGeometry>
        </mxCell>
        <mxCell id="J6B8D8bZqYuONdKnYEY_-52" value="" style="endArrow=none;html=1;rounded=0;entryX=0;entryY=0.5;entryDx=0;entryDy=0;" parent="1" edge="1">
          <mxGeometry width="50" height="50" relative="1" as="geometry">
            <mxPoint y="579" as="sourcePoint" />
            <mxPoint x="136" y="579" as="targetPoint" />
          </mxGeometry>
        </mxCell>
        <mxCell id="J6B8D8bZqYuONdKnYEY_-53" value="" style="endArrow=none;html=1;rounded=0;exitX=1;exitY=0.5;exitDx=0;exitDy=0;edgeStyle=orthogonalEdgeStyle;" parent="1" source="J6B8D8bZqYuONdKnYEY_-46" edge="1">
          <mxGeometry width="50" height="50" relative="1" as="geometry">
            <mxPoint x="1150" y="289" as="sourcePoint" />
            <mxPoint x="1260" y="139" as="targetPoint" />
            <Array as="points">
              <mxPoint x="1210" y="259" />
              <mxPoint x="1210" y="139" />
            </Array>
          </mxGeometry>
        </mxCell>
        <mxCell id="J6B8D8bZqYuONdKnYEY_-54" value="+" style="text;html=1;align=center;verticalAlign=middle;whiteSpace=wrap;rounded=0;" parent="1" vertex="1">
          <mxGeometry x="1115" y="229" width="15" height="20" as="geometry" />
        </mxCell>
        <mxCell id="J6B8D8bZqYuONdKnYEY_-55" value="+" style="text;html=1;align=center;verticalAlign=middle;whiteSpace=wrap;rounded=0;" parent="1" vertex="1">
          <mxGeometry x="1115" y="269" width="15" height="20" as="geometry" />
        </mxCell>
        <mxCell id="J6B8D8bZqYuONdKnYEY_-56" value="" style="triangle;whiteSpace=wrap;html=1;flipH=1;" parent="1" vertex="1">
          <mxGeometry x="350" width="60" height="80" as="geometry" />
        </mxCell>
        <mxCell id="J6B8D8bZqYuONdKnYEY_-57" value="+" style="text;html=1;align=center;verticalAlign=middle;whiteSpace=wrap;rounded=0;" parent="1" vertex="1">
          <mxGeometry x="395" y="10" width="15" height="20" as="geometry" />
        </mxCell>
        <mxCell id="J6B8D8bZqYuONdKnYEY_-58" value="-" style="text;html=1;align=center;verticalAlign=middle;whiteSpace=wrap;rounded=0;" parent="1" vertex="1">
          <mxGeometry x="395" y="50" width="15" height="20" as="geometry" />
        </mxCell>
        <mxCell id="J6B8D8bZqYuONdKnYEY_-59" value="" style="endArrow=none;html=1;rounded=0;entryX=1;entryY=0.5;entryDx=0;entryDy=0;edgeStyle=orthogonalEdgeStyle;" parent="1" target="J6B8D8bZqYuONdKnYEY_-57" edge="1">
          <mxGeometry width="50" height="50" relative="1" as="geometry">
            <mxPoint x="1400" y="119" as="sourcePoint" />
            <mxPoint x="1190" y="-71" as="targetPoint" />
            <Array as="points">
              <mxPoint x="1450" y="119" />
              <mxPoint x="1450" y="20" />
            </Array>
          </mxGeometry>
        </mxCell>
        <mxCell id="J6B8D8bZqYuONdKnYEY_-60" value="" style="endArrow=none;html=1;rounded=0;entryX=1;entryY=0.25;entryDx=0;entryDy=0;exitX=1;exitY=0.5;exitDx=0;exitDy=0;edgeStyle=orthogonalEdgeStyle;" parent="1" source="J6B8D8bZqYuONdKnYEY_-2" target="J6B8D8bZqYuONdKnYEY_-58" edge="1">
          <mxGeometry width="50" height="50" relative="1" as="geometry">
            <mxPoint x="560" y="149" as="sourcePoint" />
            <mxPoint x="610" y="99" as="targetPoint" />
            <Array as="points">
              <mxPoint x="490" y="249" />
              <mxPoint x="490" y="55" />
            </Array>
          </mxGeometry>
        </mxCell>
        <mxCell id="J6B8D8bZqYuONdKnYEY_-61" value="" style="endArrow=none;html=1;rounded=0;entryX=0;entryY=0.5;entryDx=0;entryDy=0;edgeStyle=orthogonalEdgeStyle;" parent="1" target="J6B8D8bZqYuONdKnYEY_-56" edge="1">
          <mxGeometry width="50" height="50" relative="1" as="geometry">
            <mxPoint x="350" y="250" as="sourcePoint" />
            <mxPoint x="430" y="169" as="targetPoint" />
            <Array as="points">
              <mxPoint x="350" y="249" />
              <mxPoint x="290" y="249" />
              <mxPoint x="290" y="40" />
            </Array>
          </mxGeometry>
        </mxCell>
        <mxCell id="J6B8D8bZqYuONdKnYEY_-123" value="" style="endArrow=none;html=1;rounded=0;entryX=0;entryY=0.5;entryDx=0;entryDy=0;edgeStyle=orthogonalEdgeStyle;" parent="1" target="J6B8D8bZqYuONdKnYEY_-54" edge="1">
          <mxGeometry width="50" height="50" relative="1" as="geometry">
            <mxPoint x="920" y="260" as="sourcePoint" />
            <mxPoint x="960" y="280" as="targetPoint" />
            <Array as="points">
              <mxPoint x="920" y="261" />
              <mxPoint x="1000" y="261" />
              <mxPoint x="1000" y="239" />
            </Array>
          </mxGeometry>
        </mxCell>
      </root>
    </mxGraphModel>
  </diagram>
</mxfile>
